PathFileType	4	(X/Y/Z)	RBDS06static.trc
DataRate	CameraRate	NumFrames	NumMarkers	Units	OrigDataRate	OrigDataStartFrame	OrigNumFrames
150.000000	150.000000	4	48	mm	150.000000	0	150
Frame#	Time	L.Ankle			L.Ankle.Medial			L.ASIS			L.GTR			L.Heel.Bottom			L.Heel.Lateral			L.Heel.Top			L.HF			L.Iliac.Crest			L.Knee			L.Knee.Medial			L.MT1			L.MT2			L.MT5			L.PSIS			L.Shank.Bottom.Lateral			L.Shank.Bottom.Medial			L.Shank.Top.Lateral			L.Shank.Top.Medial			L.Thigh.Bottom.Lateral			L.Thigh.Bottom.Medial			L.Thigh.Top.Lateral			L.Thigh.Top.Medial			L.TT			R.Ankle			R.Ankle.Medial			R.ASIS			R.GTR			R.Heel.Bottom			R.Heel.Lateral			R.Heel.Top			R.HF			R.Iliac.Crest			R.Knee			R.Knee.Medial			R.MT1			R.MT2			R.MT5			R.PSIS			R.Shank.Bottom.Lateral			R.Shank.Bottom.Medial			R.Shank.Top.Lateral			R.Shank.Top.Medial			R.Thigh.Bottom.Lateral			R.Thigh.Bottom.Medial			R.Thigh.Top.Lateral			R.Thigh.Top.Medial			R.TT			
		X1	Y1	Z1	X2	Y2	Z2	X3	Y3	Z3	X4	Y4	Z4	X5	Y5	Z5	X6	Y6	Z6	X7	Y7	Z7	X8	Y8	Z8	X9	Y9	Z9	X10	Y10	Z10	X11	Y11	Z11	X12	Y12	Z12	X13	Y13	Z13	X14	Y14	Z14	X15	Y15	Z15	X16	Y16	Z16	X17	Y17	Z17	X18	Y18	Z18	X19	Y19	Z19	X20	Y20	Z20	X21	Y21	Z21	X22	Y22	Z22	X23	Y23	Z23	X24	Y24	Z24	X25	Y25	Z25	X26	Y26	Z26	X27	Y27	Z27	X28	Y28	Z28	X29	Y29	Z29	X30	Y30	Z30	X31	Y31	Z31	X32	Y32	Z32	X33	Y33	Z33	X34	Y34	Z34	X35	Y35	Z35	X36	Y36	Z36	X37	Y37	Z37	X38	Y38	Z38	X39	Y39	Z39	X40	Y40	Z40	X41	Y41	Z41	X42	Y42	Z42	X43	Y43	Z43	X44	Y44	Z44	X45	Y45	Z45	X46	Y46	Z46	X47	Y47	Z47	X48	Y48	Z48	

1	0	708.760498046875	108.6924057006836	1042.771118164063	730.1258544921875	120.9770355224609	1128.509033203125	853.1116333007813	1036.785400390625	1105.20947265625	763.931396484375	948.6143188476563	1048.638427734375	638.0485229492188	43.10815048217773	1078.4716796875	672.5703735351563	64.68598175048828	1038.594970703125	649.4432983398438	93.03122711181641	1081.987060546875	717.6259765625	487.0049743652344	1038.547973632813	762.617919921875	1107.067626953125	1065.513671875	724.1199951171875	557.9320068359375	1042.602783203125	716.5822143554688	535.5062255859375	1174.616577148438	864.6214599609375	63.82743072509766	1122.560546875	878.8181762695313	65.26513671875	1077.669799804688	831.7238159179688	49.60251998901367	1012.380798339844	683.626220703125	1074.662109375	1177.167114257813	699.4819946289063	193.9810791015625	1038.414672851563	660.4889526367188	192.1912536621094	1076.213623046875	689.075927734375	273.2300720214844	1030.6875	651.9649047851563	272.8231811523438	1069.40087890625	727.5632934570313	640.3505859375	1032.856567382813	670.157958984375	635.5089721679688	1077.76318359375	713.4844970703125	750.2950439453125	1032.333618164063	664.1866455078125	746.1380004882813	1080.18017578125	776.0096435546875	456.5451049804688	1092.218994140625	700.7743530273438	115.7552337646484	1412.679809570313	723.9227294921875	122.5330505371094	1324.981079101563	853.099365234375	1036.62060546875	1340.555419921875	774.594482421875	940.6517944335938	1392.405151367188	631.6980590820313	42.49603652954102	1368.845458984375	661.0095825195313	65.39508819580078	1410.48779296875	641.4044189453125	91.89099884033203	1367.560668945313	721.3710327148438	491.3403015136719	1402.639526367188	783.8220825195313	1095.079223632813	1385.73681640625	729.9417114257813	550.8904418945313	1399.237670898438	729.1456298828125	533.7542114257813	1269.980834960938	857.3759155273438	66.30350494384766	1331.5166015625	859.64990234375	72.37013244628906	1370.785400390625	819.2996215820313	49.22621536254883	1443.6376953125	687.054931640625	1072.82568359375	1274.850219726563	684.9717407226563	206.7579498291016	1412.729858398438	650.5501098632813	206.8752593994141	1374.4267578125	676.9856567382813	291.2135314941406	1417.152221679688	642.2481689453125	287.2205200195313	1376.576293945313	743.8837280273438	647.3521118164063	1413.256225585938	679.2440185546875	650.0831298828125	1376.764526367188	741.9009399414063	758.0699462890625	1419.805786132813	682.2958374023438	760.3715209960938	1381.839233398438	775.8765258789063	457.5416259765625	1356.26025390625	
2	0.006666666666666667	708.7544555664063	108.6979064941406	1042.775512695313	730.1221923828125	120.9596405029297	1128.506713867188	853.1326904296875	1036.78662109375	1105.216796875	763.959228515625	948.6162109375	1048.64599609375	638.0498657226563	43.11996078491211	1078.4677734375	672.5748291015625	64.68057250976563	1038.600952148438	649.4503784179688	93.02883148193359	1081.989990234375	717.623291015625	487.0041809082031	1038.56103515625	762.6334838867188	1107.057739257813	1065.530395507813	724.1240234375	557.9329223632813	1042.619140625	716.599365234375	535.5001220703125	1174.604125976563	864.6201782226563	63.82348251342773	1122.567749023438	878.8113403320313	65.26107025146484	1077.681640625	831.720947265625	49.60131454467773	1012.390075683594	683.6632690429688	1074.661254882813	1177.1796875	699.4823608398438	193.9866027832031	1038.424438476563	660.4860229492188	192.1922302246094	1076.235107421875	689.0786743164063	273.2354125976563	1030.694580078125	651.9696655273438	272.8245239257813	1069.412353515625	727.5736083984375	640.3491821289063	1032.862060546875	670.1629028320313	635.5125122070313	1077.766357421875	713.4922485351563	750.3015747070313	1032.343994140625	664.2081298828125	746.1348266601563	1080.190673828125	776.0150756835938	456.5398559570313	1092.229858398438	700.7731323242188	115.7603759765625	1412.6845703125	723.9136352539063	122.5336380004883	1324.984985351563	853.1422729492188	1036.616088867188	1340.5654296875	774.6370849609375	940.6553344726563	1392.406005859375	631.7033081054688	42.49058532714844	1368.843383789063	661.0072021484375	65.39894866943359	1410.484375	641.4093627929688	91.88618469238281	1367.568481445313	721.3773193359375	491.3433227539063	1402.642578125	783.8555908203125	1095.062377929688	1385.733520507813	729.96142578125	550.8889770507813	1399.253540039063	729.1508178710938	533.7579345703125	1269.985961914063	857.3773193359375	66.30558776855469	1331.512573242188	859.6484985351563	72.37419128417969	1370.787353515625	819.3037719726563	49.22603607177734	1443.63037109375	687.090087890625	1072.83056640625	1274.857666015625	684.982421875	206.7515106201172	1412.736694335938	650.5530395507813	206.8741455078125	1374.435913085938	676.9998779296875	291.2118225097656	1417.155395507813	642.2518310546875	287.2215881347656	1376.578857421875	743.9152221679688	647.3445434570313	1413.267578125	679.2631225585938	650.0866088867188	1376.767944335938	741.9320678710938	758.0621948242188	1419.817504882813	682.3326416015625	760.3765869140625	1381.845458984375	775.8904418945313	457.5423889160156	1356.266723632813	
3	0.01333333333333333	708.7681274414063	108.6908874511719	1042.778564453125	730.1241455078125	120.9780349731445	1128.515014648438	853.1712036132813	1036.783569335938	1105.22216796875	763.9778442382813	948.61767578125	1048.647094726563	638.0382690429688	43.11967849731445	1078.46728515625	672.579833984375	64.68358612060547	1038.611694335938	649.4515991210938	93.02748870849609	1081.98388671875	717.635498046875	487.0190734863281	1038.565551757813	762.6572875976563	1107.047973632813	1065.543823242188	724.1328125	557.9393310546875	1042.616821289063	716.5916748046875	535.51025390625	1174.628173828125	864.6173706054688	63.81998062133789	1122.561889648438	878.813720703125	65.26264190673828	1077.669311523438	831.7228393554688	49.60341262817383	1012.380310058594	683.6914672851563	1074.66748046875	1177.1865234375	699.484619140625	193.9877166748047	1038.419799804688	660.4871215820313	192.1949615478516	1076.235595703125	689.078369140625	273.2439270019531	1030.696655273438	651.9599609375	272.8432312011719	1069.40234375	727.57421875	640.35595703125	1032.876831054688	670.17529296875	635.5147094726563	1077.792358398438	713.505615234375	750.2996826171875	1032.355224609375	664.220703125	746.1397705078125	1080.203369140625	776.0178833007813	456.5533752441406	1092.226440429688	700.783935546875	115.7654418945313	1412.683959960938	723.92041015625	122.5363693237305	1324.983642578125	853.1817626953125	1036.6142578125	1340.57568359375	774.675537109375	940.6488037109375	1392.416015625	631.6975708007813	42.49052047729492	1368.854125976563	661.0108032226563	65.40316009521484	1410.487548828125	641.4066772460938	91.88908386230469	1367.564208984375	721.3878173828125	491.3496398925781	1402.646850585938	783.8947143554688	1095.0556640625	1385.760498046875	729.970703125	550.887451171875	1399.259643554688	729.1747436523438	533.76416015625	1269.997314453125	857.377197265625	66.31168365478516	1331.509765625	859.6517944335938	72.37641143798828	1370.789794921875	819.3017578125	49.23410797119141	1443.636596679688	687.1283569335938	1072.833374023438	1274.884399414063	684.988037109375	206.7544097900391	1412.734985351563	650.5564575195313	206.8714141845703	1374.4375	677.00927734375	291.2118835449219	1417.165161132813	642.2561645507813	287.2278747558594	1376.591430664063	743.9417724609375	647.3411254882813	1413.27001953125	679.294189453125	650.0869140625	1376.777709960938	741.9697265625	758.061767578125	1419.812622070313	682.360107421875	760.3768920898438	1381.860107421875	775.9092407226563	457.5390625	1356.27099609375	
4	0.02	708.7657470703125	108.6961669921875	1042.769653320313	730.1341552734375	120.9709167480469	1128.5048828125	853.196044921875	1036.784423828125	1105.227905273438	764.0037841796875	948.625732421875	1048.662109375	638.0455932617188	43.12899017333984	1078.465087890625	672.575439453125	64.68483734130859	1038.600463867188	649.451904296875	93.03217315673828	1082.005126953125	717.6304931640625	487.0227355957031	1038.56787109375	762.6780395507813	1107.037475585938	1065.552734375	724.130859375	557.9447021484375	1042.6328125	716.58837890625	535.5073852539063	1174.63671875	864.6279907226563	63.83665466308594	1122.56103515625	878.8084106445313	65.2728271484375	1077.676513671875	831.7142944335938	49.60591506958008	1012.370544433594	683.7252197265625	1074.667846679688	1177.206787109375	699.4833984375	193.9913177490234	1038.429565429688	660.495849609375	192.2001953125	1076.232299804688	689.0812377929688	273.2465209960938	1030.707153320313	651.9768676757813	272.8313293457031	1069.408325195313	727.588623046875	640.3618774414063	1032.886962890625	670.1929931640625	635.5211791992188	1077.795654296875	713.52294921875	750.305908203125	1032.362060546875	664.2694702148438	746.0919189453125	1080.2138671875	776.02001953125	456.5530395507813	1092.2314453125	700.7830200195313	115.7689056396484	1412.688598632813	723.90966796875	122.5424041748047	1324.973876953125	853.2244873046875	1036.606079101563	1340.576293945313	774.7130737304688	940.6520385742188	1392.420654296875	631.6942749023438	42.4998779296875	1368.843872070313	661.011962890625	65.39540100097656	1410.488891601563	641.4089965820313	91.89855194091797	1367.561645507813	721.4006958007813	491.3524780273438	1402.643310546875	783.9354858398438	1095.045776367188	1385.762817382813	729.9932250976563	550.893798828125	1399.255615234375	729.1698608398438	533.76513671875	1269.996337890625	857.3778076171875	66.31222534179688	1331.5126953125	859.6566162109375	72.37545013427734	1370.78662109375	819.3012084960938	49.23609924316406	1443.634033203125	687.1705322265625	1072.83740234375	1274.893310546875	684.988037109375	206.7613372802734	1412.743041992188	650.55224609375	206.8826751708984	1374.442016601563	677.0127563476563	291.2180480957031	1417.171752929688	642.2633056640625	287.2311706542969	1376.59228515625	743.9613037109375	647.3482666015625	1413.27001953125	679.3172607421875	650.093017578125	1376.795532226563	741.99951171875	758.0646362304688	1419.824829101563	682.3951416015625	760.376953125	1381.86572265625	775.9146728515625	457.5406799316406	1356.286010742188	
